<svg width="22.2573839731" height="25" viewBox="0 0 211 237" fill="none" xmlns="http://www.w3.org/2000/svg">
<path d="M95.9 112.8L60.3 225.5L36.1 225.8C22.9 225.9 12 225.7 12 225.3C12 224.8 27.7 177.3 47 119.6C66.2 61.9 81.7 14.3 81.4 13.9C80.8 12.9 73.2 10.5 72.6 11.1C72.4 11.3 55.7 61.2 35.6 121.9C3 220.3 -0.799999 232.5 0.400001 234.2C1.7 236.1 3.1 236.2 34.6 236C52.6 236 67.5 235.8 67.6 235.7C67.6 235.6 81.7 191.2 98.8 137C115.9 82.8 130.5 36.8 131.2 34.8C132.5 31.2 132.9 32.3 164.9 127.6C182.7 180.6 197.1 224.3 196.8 224.5C196.5 224.8 186.1 224.7 173.6 224.4L151 223.7L141.8 195.3L132.6 167L112 167.2L91.5 167.5V172V176.5L108.5 177L125.4 177.5L134.5 205.5L143.6 233.5L176.9 234.4C195.2 234.8 210.4 235 210.7 234.7C211.3 234 132.9 2.32263e-05 132.1 2.32263e-05C131.8 2.32263e-05 115.5 50.8 95.9 112.8Z" fill="black"/>
</svg>
