<?xml version="1.0" encoding="UTF-8"?>
<svg xmlns="http://www.w3.org/2000/svg" xmlns:xlink="http://www.w3.org/1999/xlink" width="69px" height="30px" viewBox="0 0 91 40" version="1.1">
<defs>
<linearGradient id="linear0" gradientUnits="userSpaceOnUse" x1="-0.01" y1="94.95" x2="440.02" y2="94.95" gradientTransform="matrix(0.206818,0,0,0.208333,0,0)">
<stop offset="0" style="stop-colo:#000000;stop-opacity:1;"/>
<stop offset="0.68" style="stop-color:#000000;stop-opacity:1;"/>
<stop offset="0.73" style="stop-color:#000000;stop-opacity:1;"/>
<stop offset="0.8" style="stop-color:#000000;stop-opacity:1;"/>
<stop offset="0.88" style="stop-color:#000000;stop-opacity:1;"/>
<stop offset="0.95" style="stop-color:#000000;stop-opacity:1;"/>
<stop offset="1" style="stop-color:#000000;stop-opacity:1;"/>
</linearGradient>
<linearGradient id="linear1" gradientUnits="userSpaceOnUse" x1="209.23" y1="153.76" x2="71.26" y2="212.32" gradientTransform="matrix(0.206818,0,0,0.208333,0,0)">
<stop offset="0" style="stop-color:#000000;stop-opacity:1;"/>
<stop offset="0.68" style="stop-color:#000000;stop-opacity:1;"/>
<stop offset="0.73" style="stop-color:#000000;stop-opacity:1;"/>
<stop offset="0.8" style="stop-color:#000000;stop-opacity:1;"/>
<stop offset="0.88" style="stop-color:#000000;stop-opacity:1;"/>
<stop offset="0.95" style="stop-color:#000000;stop-opacity:1;"/>
<stop offset="1" style="stop-color:#000000;stop-opacity:1;"/>
</linearGradient>
</defs>
<g id="surface1">
<path style=" stroke:none;fill-rule:nonzero;fill:url(#linear0);" d="M 0 0.09375 L 0 39.480469 L 24.800781 39.480469 L 24.800781 35.777344 L 3.675781 35.777344 L 3.675781 3.796875 L 87.324219 3.796875 L 87.324219 35.777344 L 72.269531 35.777344 L 70.789062 39.480469 L 91 39.480469 L 91 0.09375 Z M 0 0.09375 "/>
<path style=" stroke:none;fill-rule:nonzero;fill:#000000;fill-opacity:1;" d="M 42.078125 24.640625 L 42.078125 28.984375 C 41.265625 28.480469 40.328125 28.21875 39.375 28.226562 C 36.046875 28.226562 33.679688 30.652344 33.679688 34.050781 C 33.679688 37.445312 36.046875 39.890625 39.375 39.890625 C 40.640625 39.890625 41.757812 39.453125 42.644531 38.703125 L 43.007812 39.507812 L 45.828125 39.507812 L 45.828125 24.640625 Z M 39.886719 36.550781 C 38.488281 36.550781 37.457031 35.484375 37.457031 34.050781 C 37.457031 32.613281 38.488281 31.546875 39.882812 31.546875 C 41.277344 31.546875 42.3125 32.613281 42.3125 34.046875 C 42.3125 35.484375 41.292969 36.550781 39.882812 36.550781 Z M 59.292969 33.949219 C 59.292969 30.742188 56.867188 28.226562 53.367188 28.226562 C 49.96875 28.226562 47.480469 30.699219 47.480469 34.050781 C 47.480469 37.386719 49.980469 39.875 53.367188 39.875 C 56.082031 39.875 58.277344 38.308594 59.046875 35.820312 L 55.328125 35.820312 C 54.964844 36.464844 54.238281 36.847656 53.367188 36.847656 C 52.1875 36.847656 51.390625 36.199219 51.160156 34.941406 L 59.207031 34.941406 C 59.265625 34.605469 59.292969 34.285156 59.292969 33.949219 Z M 51.230469 32.863281 C 51.535156 31.78125 52.292969 31.179688 53.382812 31.179688 C 54.515625 31.179688 55.285156 31.765625 55.621094 32.863281 Z M 67.535156 28.589844 L 65.515625 35.058594 L 63.464844 28.589844 L 59.371094 28.589844 L 63.785156 39.523438 L 67.171875 39.523438 L 71.53125 28.589844 Z M 21.617188 11.625 L 19.601562 18.097656 L 17.550781 11.628906 L 13.453125 11.628906 L 17.871094 22.558594 L 21.257812 22.558594 L 25.613281 11.628906 L 21.617188 11.628906 Z M 26.835938 7.074219 L 26.835938 10.265625 L 30.511719 10.265625 L 30.511719 7.074219 Z M 26.808594 11.628906 L 26.808594 22.558594 L 30.539062 22.558594 L 30.539062 11.625 L 26.808594 11.625 Z M 48.035156 11.582031 C 46.742188 11.582031 45.808594 11.949219 45.039062 12.839844 L 44.460938 11.628906 L 41.960938 11.628906 L 41.960938 22.558594 L 45.695312 22.558594 L 45.695312 16.996094 C 45.695312 15.609375 46.246094 15.023438 47.566406 15.023438 L 49.023438 15.023438 L 49.023438 11.582031 Z M 50.460938 7.074219 L 50.460938 10.265625 L 54.136719 10.265625 L 54.136719 7.074219 Z M 50.433594 11.628906 L 50.433594 22.558594 L 54.164062 22.558594 L 54.164062 11.625 L 50.433594 11.625 Z M 67.167969 15.898438 C 66.617188 12.007812 63.738281 11.390625 61.867188 11.320312 C 59.992188 11.410156 57.113281 12.007812 56.5625 15.902344 C 56.535156 16.078125 56.519531 16.265625 56.488281 16.425781 L 56.488281 22.558594 L 60.253906 22.558594 L 60.253906 16.722656 C 60.253906 15.417969 60.832031 14.628906 61.867188 14.523438 L 61.878906 14.523438 C 62.910156 14.628906 63.492188 15.417969 63.492188 16.722656 L 63.492188 22.558594 L 67.253906 22.558594 L 67.253906 16.425781 C 67.226562 16.265625 67.199219 16.078125 67.167969 15.898438 Z M 80.652344 17 C 80.652344 13.792969 78.226562 11.273438 74.726562 11.273438 C 71.324219 11.273438 68.839844 13.75 68.839844 17.101562 C 68.839844 20.4375 71.339844 22.925781 74.726562 22.925781 C 77.441406 22.925781 79.636719 21.359375 80.40625 18.871094 L 76.6875 18.871094 C 76.324219 19.515625 75.597656 19.894531 74.726562 19.894531 C 73.546875 19.894531 72.75 19.253906 72.515625 17.992188 L 80.566406 17.992188 C 80.625 17.65625 80.652344 17.320312 80.652344 16.996094 Z M 72.589844 15.898438 C 72.894531 14.816406 73.648438 14.214844 74.738281 14.214844 C 75.875 14.214844 76.65625 14.800781 76.976562 15.898438 Z M 40.433594 19.398438 L 40.433594 22.664062 L 37.890625 22.664062 C 35.511719 22.664062 34.070312 21.199219 34.070312 18.796875 L 34.070312 14.714844 L 32.109375 14.714844 L 32.109375 11.847656 L 34.058594 11.847656 L 34.058594 7.941406 L 37.761719 7.941406 L 37.761719 10.894531 L 37.660156 10.953125 L 36.25 11.847656 L 40.347656 11.847656 L 40.347656 14.714844 L 37.75 14.714844 L 37.75 18.167969 C 37.75 18.945312 38.210938 19.414062 38.996094 19.414062 L 40.433594 19.414062 Z M 40.433594 19.398438 "/>
<path style=" stroke:none;fill-rule:nonzero;fill:#000000;fill-opacity:1;" d="M 34.074219 14.714844 L 34.058594 14.714844 L 34.058594 15.535156 L 34.074219 15.535156 Z M 34.074219 14.714844 "/>
<path style=" stroke:none;fill-rule:nonzero;fill:url(#linear1);" d="M 28.273438 35.777344 L 28.273438 39.480469 L 32.109375 39.480469 L 32.109375 35.777344 Z M 28.273438 35.777344 "/>
</g>
</svg>
